<?xml version="1.0" standalone="no"?><!DOCTYPE svg PUBLIC "-//W3C//DTD SVG 1.1//EN" "http://www.w3.org/Graphics/SVG/1.1/DTD/svg11.dtd"><svg t="1534181467825" class="icon" style="" viewBox="0 0 1024 1024" version="1.1" xmlns="http://www.w3.org/2000/svg" p-id="1824" xmlns:xlink="http://www.w3.org/1999/xlink" width="200" height="200"><defs><style type="text/css"></style></defs><path d="M898.454907 544.96165L812.503498 289.520374l-2.024096-4.578263a143.722045 143.722045 0 0 0-126.232754-74.941679h-71.567846v57.497413h71.567846c30.786105 0 59.157213 16.404589 74.606036 42.948076L815.819003 479.765919c-18.540225-6.935956-38.481353-10.897166-59.325035-10.897166-66.682592 0-124.548395 38.762761-153.255146 95.27678-23.424455-23.312915-55.670816-37.779366-91.232682-37.779366-35.603821 0-67.848135 14.466451-91.245985 37.779366-28.735404-56.515042-86.572555-95.27678-153.255146-95.27678-21.62958 0-42.274741 4.241596-61.37369 11.686134l56.739145-170.220506c15.251325-26.488228 43.228461-42.835512 73.619571-42.835512h74.829116v-57.497414h-74.829116c-52.301075 0-100.333949 28.763033-125.360899 75.05322l-87.440316 260.976328 0.813526 0.279362c-18.651765 28.088676-29.575537 61.935484-29.575536 98.310877 0 94.969789 75.810465 169.378327 172.577175 169.378326 92.92011 0 166.315577-68.650406 172.018452-158.198729h0.561794c0-39.63257 32.244314-71.877907 71.920886-71.877907 39.663269 0 71.908606 32.245337 71.908606 71.877907h0.561794c5.674222 89.548323 79.098341 158.198729 172.018451 158.198729 96.739081 0 172.577176-74.408538 172.577176-169.378326 0.001023-36.992445-11.346396-71.317136-30.616237-99.659592z m-630.948875 211.539481c-65.58868 0-115.053156-48.117808-115.053156-111.879889 0-65.195731 51.601135-118.255075 115.053156-118.255075 63.455091 0 115.053156 53.059344 115.053156 118.255075-0.001023 63.761058-49.465499 111.87989-115.053156 111.879889z m488.987936 0c-65.616309 0-115.053156-48.117808-115.053156-111.879889 0-65.195731 51.571459-118.255075 115.053156-118.255075 63.423368 0 115.051109 53.059344 115.051109 118.255075 0 63.761058-49.491082 111.87989-115.051109 111.879889z" p-id="1825"></path></svg>